<svg width="57" height="57" viewBox="0 0 57 57" fill="none" xmlns="http://www.w3.org/2000/svg">
<rect width="57" height="57" rx="8" fill="white"/>
<path d="M50.099 19.1262C48.4852 18.9666 46.8555 19.1362 45.3108 19.6245C43.562 20.093 41.8479 20.68 40.1807 21.3812C41.3516 19.1219 42.151 16.6929 42.5491 14.1854C42.8744 12.5013 42.7924 10.765 42.3097 9.11804C42.0221 8.18498 41.4956 7.34103 40.7812 6.66783C40.0667 5.99463 39.1884 5.51497 38.2313 5.27526C37.2949 5.11732 36.3337 5.18872 35.4318 5.48322C34.5299 5.77772 33.7149 6.28632 33.0584 6.96439C31.9409 8.15129 31.0694 9.54286 30.4933 11.0605C30.2112 11.7193 29.9375 12.3781 29.6896 13.0453C29.5955 12.2007 29.4929 11.3561 29.3647 10.5707C29.1376 8.557 28.46 6.61838 27.381 4.8952C26.7599 3.90794 25.8675 3.11541 24.8078 2.60999C23.7481 2.10457 22.5649 1.90709 21.3959 2.04056C20.3616 2.26421 19.4033 2.74793 18.6139 3.44485C17.8245 4.14177 17.2306 5.02827 16.8899 6.01848C16.305 7.76393 16.121 9.61614 16.3513 11.4406C16.5316 13.6914 16.9296 15.9199 17.5397 18.0958C16.3684 17.1245 15.1799 16.2462 14.1197 15.427C12.941 14.4633 11.613 13.6933 10.1866 13.1466C9.3457 12.8362 8.44231 12.7272 7.55053 12.8285C6.65876 12.9298 5.804 13.2386 5.05643 13.7294C4.365 14.2767 3.818 14.9813 3.46214 15.7828C3.10629 16.5844 2.95216 17.4591 3.01293 18.3323C3.10618 19.8483 3.56024 21.3211 4.33821 22.6311C6.84512 26.9758 10.8607 30.2762 15.6416 31.9214C13.2472 33.0872 11.0611 34.6304 9.16908 36.4905C7.59584 37.9009 5.8174 39.4971 4.84267 41.6761C3.86795 43.8551 3.83375 47.0053 6.0055 48.9141C7.10113 49.838 8.50739 50.3232 9.94715 50.2738C11.4207 50.2341 12.8724 49.9129 14.2223 49.3279C18.4317 47.5988 22.1019 44.7982 24.8587 41.2116C25.6337 44.9153 27.1418 48.4312 29.2963 51.5576C30.1484 52.8857 31.2585 54.034 32.5625 54.9358C33.6096 55.6157 34.8321 55.985 36.0852 56C36.6306 56.0009 37.1728 55.9183 37.6926 55.7551C38.7197 55.3764 39.6258 54.7336 40.3173 53.8933C41.0087 53.0529 41.4604 52.0454 41.6257 50.9748C41.8879 49.0701 41.6646 47.1309 40.9759 45.3331C39.9126 42.2289 38.2454 39.3599 36.0681 36.8874C42.0999 36.5978 47.8114 34.1197 52.1083 29.9282C54.7332 27.3438 55.6395 24.4301 54.5451 22.1413C54.1103 21.3177 53.4776 20.6121 52.7024 20.0864C51.9272 19.5607 51.0332 19.231 50.099 19.1262ZM32.819 12.0656C33.2774 10.8534 33.9651 9.73849 34.8454 8.78021C35.2055 8.39786 35.6516 8.10459 36.1477 7.92412C36.6438 7.74365 37.176 7.68106 37.7011 7.7414C38.2195 7.8947 38.6904 8.17479 39.07 8.55569C39.4497 8.93659 39.7258 9.40599 39.8729 9.92038C40.2306 11.1805 40.2775 12.5068 40.0097 13.7885C39.4566 17.3042 38.0353 20.6313 35.8714 23.4757C34.1737 24.4399 32.5504 25.5267 31.0149 26.7273C30.9028 26.5512 30.78 26.3819 30.6472 26.2205C30.2884 25.8074 29.8674 25.4514 29.3989 25.1648V25.0804C29.5614 24.9733 29.6968 24.8309 29.7946 24.6639C29.8925 24.497 29.9501 24.31 29.9632 24.1176C30.0544 22.9577 30.1 21.7922 30.1 20.6211C30.709 17.6852 31.62 14.8185 32.819 12.0656ZM23.7301 32.1325C23.3284 31.6768 23.0578 31.1229 22.9465 30.5288C22.8352 29.9346 22.8873 29.3218 23.0974 28.7542H23.2427C23.4417 28.7547 23.638 28.7091 23.816 28.6211C23.9939 28.5331 24.1485 28.4051 24.2674 28.2475C24.3862 28.0899 24.4661 27.9069 24.5004 27.7133C24.5348 27.5197 24.5228 27.3209 24.4654 27.1327C25.1442 26.7655 25.9289 26.6366 26.6915 26.767C27.454 26.8974 28.1492 27.2794 28.6636 27.8506C29.0043 28.2786 29.2228 28.7889 29.2963 29.3285C29.0946 29.5261 28.965 29.7843 28.9278 30.0625C28.8907 30.3407 28.9481 30.6232 29.0911 30.8657C29.0911 30.8657 29.1424 30.9248 29.168 30.9586C29.0131 31.4848 28.7178 31.9603 28.313 32.3352C27.6595 32.8684 26.8288 33.1429 25.982 33.1054C25.1353 33.068 24.3328 32.7212 23.7301 32.1325ZM19.2583 6.87994C19.4473 6.30118 19.7817 5.77917 20.2302 5.36267C20.6788 4.94617 21.2269 4.64877 21.8234 4.49826C23.2 4.26178 24.5766 5.25837 25.2435 6.28029C26.0886 7.71295 26.6107 9.30894 26.774 10.9592C27.284 14.0813 27.5385 17.239 27.5349 20.4015C27.2784 21.6739 27.0761 22.9577 26.9279 24.2527C25.6755 24.0717 24.3973 24.2876 23.2769 24.8692C22.9217 24.1462 22.5101 23.4515 22.0457 22.7916C20.2856 19.1551 19.2162 15.2304 18.8907 11.2126C18.6985 9.76125 18.8268 8.28603 19.2669 6.88838L19.2583 6.87994ZM6.57836 21.3812C5.96547 20.4164 5.59059 19.3228 5.48394 18.1887C5.44362 17.7315 5.51322 17.2713 5.68706 16.8457C5.8609 16.4201 6.13407 16.041 6.48431 15.7395C6.90694 15.4938 7.38062 15.3464 7.86947 15.3084C8.35832 15.2703 8.84952 15.3426 9.30588 15.5199C10.4684 15.9879 11.5502 16.6319 12.5122 17.4286C15.0773 19.3289 17.9159 21.4403 19.8312 24.126C20.2673 24.9706 20.7375 25.8658 21.2505 26.7104C20.5367 27.8663 20.2356 29.2253 20.3955 30.5701C20.2133 30.4167 19.9911 30.3172 19.7542 30.2829C17.0195 29.88 14.4129 28.8696 12.1306 27.3277C9.84841 25.7858 7.95002 23.7526 6.57836 21.3812ZM13.2646 46.9547C12.1189 47.4192 9.27168 48.3567 7.70699 46.9547C6.55271 45.9412 6.56982 44.0156 7.18543 42.6389C7.93785 40.9498 9.43414 39.6069 10.8877 38.3063C13.5895 35.8908 16.2658 33.7034 19.3096 33.5514C19.6277 33.5349 19.9282 33.4022 20.1526 33.1789C20.377 32.9557 20.5093 32.6579 20.5238 32.3436C20.6042 32.2524 20.6704 32.15 20.7204 32.0396C20.9717 32.7264 21.3615 33.3556 21.8661 33.8892C22.5455 34.5841 23.3976 35.0908 24.3372 35.3588C24.2625 35.5234 24.2246 35.702 24.226 35.8824C24.226 36.4145 24.2688 36.9381 24.3115 37.4617C21.7614 41.7195 17.8866 45.0493 13.2646 46.9547ZM39.1034 50.5019C39.0206 51.1188 38.778 51.7042 38.399 52.2013C38.02 52.6985 37.5175 53.0905 36.9402 53.3396C36.4362 53.4644 35.9108 53.48 35.4001 53.3852C34.8894 53.2905 34.4056 53.0876 33.9818 52.7906C32.9603 52.073 32.0892 51.1667 31.4167 50.1218C28.9328 46.5258 27.3959 42.3749 26.945 38.0445C27.3126 37.3773 27.6546 36.7016 27.9624 36.0091C28.0565 35.7908 28.0861 35.5507 28.048 35.3165C28.6395 35.1285 29.1945 34.843 29.6896 34.472C29.7807 34.632 29.9062 34.7703 30.0573 34.8774C34.0258 37.6516 36.9991 41.6 38.5476 46.1523C39.0992 47.5332 39.2903 49.0289 39.1034 50.5019ZM50.2871 28.0955C48.0839 30.245 45.444 31.9082 42.5419 32.9754C39.6398 34.0426 36.5415 34.4893 33.4517 34.2862C32.8361 33.7625 32.2034 33.2558 31.5279 32.7913C31.4327 32.7271 31.3292 32.6759 31.2201 32.6392C31.5315 32.03 31.7367 31.3733 31.8271 30.6967C34.008 29.2686 35.9422 27.5035 37.5558 25.4689C40.2105 24.0085 43.0359 22.874 45.9692 22.0906C47.1817 21.7013 48.4607 21.5549 49.7313 21.6599C50.2421 21.7017 50.7351 21.8649 51.1683 22.1354C51.6015 22.406 51.9621 22.776 52.2194 23.2139C52.9462 24.6919 51.6978 26.7104 50.2871 28.0955Z" fill="#F56200"/>
<path d="M39.607 16.7346C38.4898 16.6253 37.3615 16.7415 36.2921 17.076C35.0814 17.3971 33.8947 17.7992 32.7405 18.2797C33.5511 16.7316 34.1046 15.0674 34.3802 13.3493C34.6054 12.1953 34.5486 11.0056 34.2144 9.87718C34.0153 9.23786 33.6508 8.65959 33.1562 8.19833C32.6615 7.73706 32.0535 7.4084 31.3909 7.24416C30.7426 7.13594 30.0771 7.18487 29.4528 7.38665C28.8284 7.58844 28.2642 7.93692 27.8096 8.40153C27.036 9.21477 26.4327 10.1683 26.0338 11.2082C25.8385 11.6595 25.6491 12.1109 25.4774 12.5681C25.4123 11.9894 25.3413 11.4107 25.2525 10.8725C25.0953 9.49276 24.6262 8.16444 23.8792 6.98375C23.4492 6.30729 22.8314 5.76426 22.0977 5.41796C21.3641 5.07165 20.5449 4.93634 19.7356 5.02779C19.0196 5.18103 18.3562 5.51247 17.8096 5.98999C17.2631 6.46751 16.852 7.07493 16.6161 7.7534C16.2112 8.94936 16.0838 10.2185 16.2432 11.4686C16.368 13.0107 16.6436 14.5377 17.066 16.0286C16.255 15.3631 15.4322 14.7613 14.6982 14.2C13.8822 13.5396 12.9628 13.0121 11.9753 12.6375C11.3932 12.4248 10.7678 12.3501 10.1504 12.4195C9.53298 12.489 8.94123 12.7005 8.42368 13.0368C7.945 13.4118 7.56631 13.8946 7.31994 14.4438C7.07358 14.993 6.96688 15.5923 7.00895 16.1906C7.07351 17.2294 7.38786 18.2385 7.92645 19.1361C9.66201 22.113 12.442 24.3744 15.7519 25.5017C14.0942 26.3005 12.5808 27.3579 11.2709 28.6324C10.1817 29.5988 8.9505 30.6925 8.2757 32.1855C7.60089 33.6785 7.57721 35.837 9.08073 37.1448C9.83925 37.7779 10.8128 38.1103 11.8096 38.0765C12.8297 38.0493 13.8348 37.8292 14.7693 37.4284C17.6835 36.2436 20.2244 34.3247 22.133 31.8672C22.6695 34.4049 23.7135 36.814 25.2051 38.9561C25.795 39.8662 26.5636 40.6529 27.4663 41.2708C28.1913 41.7367 29.0376 41.9897 29.9051 42C30.2827 42.0006 30.6581 41.944 31.0179 41.8322C31.729 41.5727 32.3563 41.1323 32.835 40.5565C33.3137 39.9807 33.6264 39.2903 33.7409 38.5568C33.9224 37.2518 33.7678 35.923 33.291 34.6912C32.5549 32.5643 31.4007 30.5985 29.8933 28.9043C34.0692 28.7059 38.0233 27.008 40.998 24.136C42.8153 22.3652 43.4427 20.3687 42.685 18.8005C42.3841 18.2362 41.946 17.7528 41.4093 17.3926C40.8727 17.0324 40.2538 16.8064 39.607 16.7346ZM27.6439 11.8968C27.9613 11.0662 28.4374 10.3023 29.0468 9.6457C29.2961 9.38372 29.605 9.18277 29.9484 9.05912C30.2919 8.93547 30.6603 8.89258 31.0239 8.93392C31.3828 9.03896 31.7087 9.23087 31.9715 9.49186C32.2344 9.75285 32.4256 10.0745 32.5274 10.4269C32.775 11.2903 32.8075 12.1991 32.6221 13.0773C32.2392 15.4862 31.2552 17.7659 29.7571 19.7148C28.5818 20.3755 27.458 21.1202 26.3949 21.9428C26.3173 21.8221 26.2323 21.7062 26.1404 21.5956C25.892 21.3125 25.6005 21.0685 25.2762 20.8722V20.8143C25.3886 20.741 25.4824 20.6434 25.5501 20.529C25.6179 20.4146 25.6578 20.2865 25.6668 20.1546C25.73 19.3599 25.7615 18.5613 25.7615 17.7589C26.1831 15.7473 26.8139 13.783 27.6439 11.8968ZM21.3516 25.6463C21.0735 25.3341 20.8862 24.9546 20.8091 24.5475C20.7321 24.1404 20.7682 23.7205 20.9136 23.3316H21.0142C21.152 23.3319 21.2879 23.3007 21.4111 23.2404C21.5342 23.1801 21.6413 23.0924 21.7236 22.9844C21.8059 22.8764 21.8611 22.751 21.8849 22.6184C21.9087 22.4857 21.9004 22.3495 21.8607 22.2205C22.3306 21.969 22.8739 21.8806 23.4018 21.97C23.9297 22.0593 24.411 22.3211 24.7671 22.7124C25.003 23.0057 25.1542 23.3554 25.2051 23.7251C25.0655 23.8605 24.9757 24.0374 24.95 24.228C24.9243 24.4186 24.9641 24.6122 25.0631 24.7783C25.0631 24.7783 25.0986 24.8188 25.1163 24.842C25.0091 25.2026 24.8046 25.5284 24.5244 25.7852C24.072 26.1506 23.4969 26.3386 22.9106 26.313C22.3244 26.2873 21.7688 26.0497 21.3516 25.6463ZM18.2558 8.34366C18.3866 7.9471 18.6181 7.58943 18.9286 7.30405C19.2392 7.01867 19.6186 6.8149 20.0316 6.71177C20.9846 6.54974 21.9376 7.23258 22.3993 7.93279C22.9844 8.91443 23.3458 10.008 23.4589 11.1387C23.812 13.2779 23.9882 15.4415 23.9857 17.6084C23.8081 18.4803 23.6681 19.3599 23.5655 20.2472C22.6984 20.1232 21.8135 20.2711 21.0379 20.6697C20.792 20.1742 20.507 19.6983 20.1855 19.2461C18.967 16.7544 18.2266 14.0653 18.0012 11.3123C17.8682 10.3179 17.957 9.3071 18.2617 8.34945L18.2558 8.34366ZM9.47733 18.2797C9.05302 17.6186 8.79348 16.8693 8.71965 16.0923C8.69174 15.779 8.73992 15.4637 8.86027 15.172C8.98062 14.8804 9.16974 14.6207 9.41222 14.4141C9.70481 14.2458 10.0327 14.1448 10.3712 14.1187C10.7096 14.0926 11.0497 14.1422 11.3656 14.2636C12.1705 14.5843 12.9193 15.0255 13.5854 15.5714C15.3612 16.8735 17.3264 18.3202 18.6524 20.1604C18.9543 20.7391 19.2798 21.3525 19.635 21.9312C19.1408 22.7232 18.9324 23.6543 19.043 24.5758C18.9169 24.4707 18.763 24.4025 18.5991 24.379C16.7058 24.103 14.9012 23.4107 13.3212 22.3542C11.7412 21.2977 10.4269 19.9046 9.47733 18.2797ZM14.1063 35.8023C13.3131 36.1206 11.3419 36.7629 10.2587 35.8023C9.45957 35.1079 9.47141 33.7884 9.89761 32.8452C10.4185 31.6878 11.4544 30.7677 12.4607 29.8765C14.3312 28.2215 16.184 26.7227 18.2913 26.6185C18.5115 26.6073 18.7195 26.5163 18.8749 26.3633C19.0303 26.2104 19.1218 26.0064 19.1318 25.791C19.1875 25.7285 19.2334 25.6583 19.268 25.5827C19.442 26.0532 19.7118 26.4844 20.0612 26.85C20.5315 27.3261 21.1214 27.6733 21.7719 27.8569C21.7202 27.9697 21.694 28.0921 21.6949 28.2157C21.6949 28.5803 21.7245 28.9391 21.7541 29.2979C19.9887 32.2152 17.3061 34.4968 14.1063 35.8023ZM31.9946 38.2328C31.9373 38.6555 31.7694 39.0566 31.507 39.3972C31.2446 39.7378 30.8968 40.0065 30.497 40.1771C30.1481 40.2627 29.7844 40.2733 29.4308 40.2084C29.0773 40.1435 28.7423 40.0045 28.4489 39.801C27.7418 39.3093 27.1387 38.6883 26.6731 37.9723C24.9535 35.5085 23.8895 32.6643 23.5773 29.6971C23.8318 29.24 24.0686 28.777 24.2817 28.3025C24.3468 28.153 24.3673 27.9885 24.3409 27.828C24.7504 27.6992 25.1347 27.5035 25.4774 27.2493C25.5405 27.3589 25.6274 27.4537 25.7319 27.5271C28.4794 29.428 30.5378 32.1333 31.6099 35.2525C31.9917 36.1987 32.1241 37.2235 31.9946 38.2328ZM39.7372 22.8802C38.2119 24.353 36.3843 25.4927 34.3752 26.2239C32.366 26.9551 30.2211 27.2612 28.0819 27.122C27.6557 26.7632 27.2177 26.416 26.7501 26.0977C26.6842 26.0537 26.6125 26.0187 26.537 25.9936C26.7526 25.5761 26.8947 25.1262 26.9573 24.6626C28.4671 23.6841 29.8062 22.4746 30.9232 21.0805C32.7611 20.0799 34.7172 19.3026 36.7479 18.7658C37.5874 18.499 38.4728 18.3987 39.3524 18.4707C39.7061 18.4993 40.0474 18.6111 40.3473 18.7965C40.6472 18.9819 40.8969 19.2354 41.075 19.5354C41.5781 20.5481 40.7139 21.9312 39.7372 22.8802Z" fill="#ADBDFF"/>
</svg>
