<svg width="32" height="34" viewBox="0 0 52 54" fill="none" xmlns="http://www.w3.org/2000/svg">
<path d="M47.099 17.1262C45.4852 16.9666 43.8555 17.1362 42.3108 17.6245C40.562 18.093 38.8479 18.68 37.1807 19.3812C38.3516 17.1219 39.151 14.6929 39.5491 12.1854C39.8744 10.5013 39.7924 8.76499 39.3097 7.11804C39.0221 6.18498 38.4956 5.34103 37.7812 4.66783C37.0667 3.99463 36.1884 3.51497 35.2313 3.27526C34.2949 3.11732 33.3337 3.18872 32.4318 3.48322C31.5299 3.77772 30.7149 4.28632 30.0584 4.96439C28.9409 6.15129 28.0694 7.54286 27.4933 9.06055C27.2112 9.71931 26.9375 10.3781 26.6896 11.0453C26.5955 10.2007 26.4929 9.35614 26.3647 8.5707C26.1376 6.557 25.46 4.61838 24.381 2.8952C23.7599 1.90794 22.8675 1.11541 21.8078 0.609991C20.7481 0.104571 19.5649 -0.0929117 18.3959 0.0405638C17.3616 0.264213 16.4033 0.747929 15.6139 1.44485C14.8245 2.14177 14.2306 3.02827 13.8899 4.01848C13.305 5.76393 13.121 7.61614 13.3513 9.4406C13.5316 11.6914 13.9296 13.9199 14.5397 16.0958C13.3684 15.1245 12.1799 14.2462 11.1197 13.427C9.94103 12.4633 8.613 11.6933 7.18655 11.1466C6.3457 10.8362 5.44231 10.7272 4.55053 10.8285C3.65876 10.9298 2.804 11.2386 2.05643 11.7294C1.365 12.2767 0.817997 12.9813 0.462141 13.7828C0.106285 14.5844 -0.047843 15.4591 0.0129256 16.3323C0.106181 17.8483 0.560244 19.3211 1.33821 20.6311C3.84512 24.9758 7.8607 28.2762 12.6416 29.9214C10.2472 31.0872 8.06111 32.6304 6.16908 34.4905C4.59584 35.9009 2.8174 37.4971 1.84267 39.6761C0.867947 41.8551 0.833746 45.0053 3.0055 46.9141C4.10113 47.838 5.50739 48.3232 6.94715 48.2738C8.42065 48.2341 9.87242 47.9129 11.2223 47.3279C15.4317 45.5988 19.1019 42.7982 21.8587 39.2116C22.6337 42.9153 24.1418 46.4312 26.2963 49.5576C27.1484 50.8857 28.2585 52.034 29.5625 52.9358C30.6096 53.6157 31.8321 53.985 33.0852 54C33.6306 54.0009 34.1728 53.9183 34.6926 53.7551C35.7197 53.3764 36.6258 52.7336 37.3173 51.8933C38.0087 51.0529 38.4604 50.0454 38.6257 48.9748C38.8879 47.0701 38.6646 45.1309 37.9759 43.3331C36.9126 40.2289 35.2454 37.3599 33.0681 34.8874C39.0999 34.5978 44.8114 32.1197 49.1083 27.9282C51.7332 25.3438 52.6395 22.4301 51.5451 20.1413C51.1103 19.3177 50.4776 18.6121 49.7024 18.0864C48.9272 17.5607 48.0332 17.231 47.099 17.1262ZM29.819 10.0656C30.2774 8.85343 30.9651 7.73849 31.8454 6.78021C32.2055 6.39786 32.6516 6.10459 33.1477 5.92412C33.6438 5.74365 34.176 5.68106 34.7011 5.7414C35.2195 5.8947 35.6904 6.17479 36.07 6.55569C36.4497 6.93659 36.7258 7.40599 36.8729 7.92038C37.2306 9.18045 37.2775 10.5068 37.0097 11.7885C36.4566 15.3042 35.0353 18.6313 32.8714 21.4757C31.1737 22.4399 29.5504 23.5267 28.0149 24.7273C27.9028 24.5512 27.78 24.3819 27.6472 24.2205C27.2884 23.8074 26.8674 23.4514 26.3989 23.1648V23.0804C26.5614 22.9733 26.6968 22.8309 26.7946 22.6639C26.8925 22.497 26.9501 22.31 26.9632 22.1176C27.0544 20.9577 27.1 19.7922 27.1 18.6211C27.709 15.6852 28.62 12.8185 29.819 10.0656ZM20.7301 30.1325C20.3284 29.6768 20.0578 29.1229 19.9465 28.5288C19.8352 27.9346 19.8873 27.3218 20.0974 26.7542H20.2427C20.4417 26.7547 20.638 26.7091 20.816 26.6211C20.9939 26.5331 21.1485 26.4051 21.2674 26.2475C21.3862 26.0899 21.4661 25.9069 21.5004 25.7133C21.5348 25.5197 21.5228 25.3209 21.4654 25.1327C22.1442 24.7655 22.9289 24.6366 23.6915 24.767C24.454 24.8974 25.1492 25.2794 25.6636 25.8506C26.0043 26.2786 26.2228 26.7889 26.2963 27.3285C26.0946 27.5261 25.965 27.7843 25.9278 28.0625C25.8907 28.3407 25.9481 28.6232 26.0911 28.8657C26.0911 28.8657 26.1424 28.9248 26.168 28.9586C26.0131 29.4848 25.7178 29.9603 25.313 30.3352C24.6595 30.8684 23.8288 31.1429 22.982 31.1054C22.1353 31.068 21.3328 30.7212 20.7301 30.1325ZM16.2583 4.87994C16.4473 4.30118 16.7817 3.77917 17.2302 3.36267C17.6788 2.94617 18.2269 2.64877 18.8234 2.49826C20.2 2.26178 21.5766 3.25837 22.2435 4.28029C23.0886 5.71295 23.6107 7.30894 23.774 8.9592C24.284 12.0813 24.5385 15.239 24.5349 18.4015C24.2784 19.6739 24.0761 20.9577 23.9279 22.2527C22.6755 22.0717 21.3973 22.2876 20.2769 22.8692C19.9217 22.1462 19.5101 21.4515 19.0457 20.7916C17.2856 17.1551 16.2162 13.2304 15.8907 9.21257C15.6985 7.76125 15.8268 6.28603 16.2669 4.88838L16.2583 4.87994ZM3.57836 19.3812C2.96547 18.4164 2.59059 17.3228 2.48394 16.1887C2.44362 15.7315 2.51322 15.2713 2.68706 14.8457C2.8609 14.4201 3.13407 14.041 3.48431 13.7395C3.90694 13.4938 4.38062 13.3464 4.86947 13.3084C5.35832 13.2703 5.84952 13.3426 6.30588 13.5199C7.46844 13.9879 8.55017 14.6319 9.51221 15.4286C12.0773 17.3289 14.9159 19.4403 16.8312 22.126C17.2673 22.9706 17.7375 23.8658 18.2505 24.7104C17.5367 25.8663 17.2356 27.2253 17.3955 28.5701C17.2133 28.4167 16.9911 28.3172 16.7542 28.2829C14.0195 27.88 11.4129 26.8696 9.13065 25.3277C6.84841 23.7858 4.95002 21.7526 3.57836 19.3812ZM10.2646 44.9547C9.1189 45.4192 6.27168 46.3567 4.70699 44.9547C3.55271 43.9412 3.56982 42.0156 4.18543 40.6389C4.93785 38.9498 6.43414 37.6069 7.88767 36.3063C10.5895 33.8908 13.2658 31.7034 16.3096 31.5514C16.6277 31.5349 16.9282 31.4022 17.1526 31.1789C17.377 30.9557 17.5093 30.6579 17.5238 30.3436C17.6042 30.2524 17.6704 30.15 17.7204 30.0396C17.9717 30.7264 18.3615 31.3556 18.8661 31.8892C19.5455 32.5841 20.3976 33.0908 21.3372 33.3588C21.2625 33.5234 21.2246 33.702 21.226 33.8824C21.226 34.4145 21.2688 34.9381 21.3115 35.4617C18.7614 39.7195 14.8866 43.0493 10.2646 44.9547ZM36.1034 48.5019C36.0206 49.1188 35.778 49.7042 35.399 50.2013C35.02 50.6985 34.5175 51.0905 33.9402 51.3396C33.4362 51.4644 32.9108 51.48 32.4001 51.3852C31.8894 51.2905 31.4056 51.0876 30.9818 50.7906C29.9603 50.073 29.0892 49.1667 28.4167 48.1218C25.9328 44.5258 24.3959 40.3749 23.945 36.0445C24.3126 35.3773 24.6546 34.7016 24.9624 34.0091C25.0565 33.7908 25.0861 33.5507 25.048 33.3165C25.6395 33.1285 26.1945 32.843 26.6896 32.472C26.7807 32.632 26.9062 32.7703 27.0573 32.8774C31.0258 35.6516 33.9991 39.6 35.5476 44.1523C36.0992 45.5332 36.2903 47.0289 36.1034 48.5019ZM47.2871 26.0955C45.0839 28.245 42.444 29.9082 39.5419 30.9754C36.6398 32.0426 33.5415 32.4893 30.4517 32.2862C29.8361 31.7625 29.2034 31.2558 28.5279 30.7913C28.4327 30.7271 28.3292 30.6759 28.2201 30.6392C28.5315 30.03 28.7367 29.3733 28.8271 28.6967C31.008 27.2686 32.9422 25.5035 34.5558 23.4689C37.2105 22.0085 40.0359 20.874 42.9692 20.0906C44.1817 19.7013 45.4607 19.5549 46.7313 19.6599C47.2421 19.7017 47.7351 19.8649 48.1683 20.1354C48.6015 20.406 48.9621 20.776 49.2194 21.2139C49.9462 22.6919 48.6978 24.7104 47.2871 26.0955Z" fill="#F56200"/>
</svg>
