<svg width="111" height="73" viewBox="0 0 111 73" fill="none" xmlns="http://www.w3.org/2000/svg">
<path d="M19.9277 24.8789C20.2369 23.8888 20.4688 23.1071 20.6234 22.5338C20.9842 21.7521 21.5511 21.0747 22.3242 20.5014C23.1488 19.9282 24.0765 19.4592 25.1072 19.0944C26.1895 18.6775 27.3234 18.3908 28.5087 18.2345C29.7456 18.0782 30.9825 18 32.2195 18C33.2502 18.1042 34.2294 18.1303 35.1571 18.0782C36.1363 17.9739 37.1671 17.9739 38.2494 18.0782C39.8986 18.1824 41.4705 18.5211 42.9651 19.0944C44.4597 19.6155 45.7481 20.3972 46.8304 21.4395C47.552 21.9085 48.1189 22.6641 48.5312 23.7064C48.9435 24.7487 49.2527 25.9733 49.4589 27.3804C49.665 28.7353 49.7939 30.2466 49.8454 31.9142C49.8969 33.5297 49.9485 35.1973 50 36.9171C49.9485 38.4283 49.8712 40.1481 49.7681 42.0763C49.7165 44.0045 49.5877 45.8545 49.3815 47.6263C49.2269 49.3982 48.995 50.9876 48.6858 52.3947C48.4281 53.8017 48.0416 54.7658 47.5262 55.2869C46.65 56.5377 45.4904 57.4236 44.0474 57.9447C42.6559 58.4658 41.1355 58.7785 39.4863 58.8827C37.8371 59.0391 36.1363 59.0391 34.384 58.8827C32.6318 58.7785 31.0341 58.7264 29.591 58.7264C26.9626 58.2574 24.7465 57.1109 22.9426 55.2869C21.5511 54.0362 20.5977 52.4728 20.0823 50.5968C19.5669 48.7207 19.2577 46.7665 19.1546 44.734C19.0515 42.6495 19.0258 40.565 19.0773 38.4805C19.1804 36.3959 19.1546 34.4938 19 32.7741C19 31.836 19.0258 30.9241 19.0773 30.0381C19.1288 29.1001 19.2319 28.136 19.3865 27.1459C19.4381 26.5726 19.6185 25.817 19.9277 24.8789ZM32.9152 30.0381C31.8329 30.3508 30.9568 30.9241 30.2868 31.7579C29.9776 31.9663 29.7456 32.4875 29.591 33.3213C29.3849 34.9889 29.2818 36.6565 29.2818 38.3241C29.2818 39.9396 29.2303 41.6594 29.1272 43.4833C29.0756 44.6819 29.3849 45.62 30.0549 46.2974C30.7249 46.9228 31.5237 47.3658 32.4514 47.6263C33.4306 47.8348 34.4356 47.8869 35.4663 47.7827C36.4971 47.6263 37.3475 47.3657 38.0175 47.001C38.8936 46.5841 39.4863 45.7242 39.7955 44.4214C40.0017 42.7537 40.1563 41.0861 40.2594 39.4185C40.414 37.6988 40.3367 36.0833 40.0274 34.572C39.7697 32.748 39.0224 31.4191 37.7855 30.5853C36.5486 29.7515 34.9252 29.5691 32.9152 30.0381Z" fill="black"/>
<path d="M18.4 54.9499C18.4667 55.0832 18.5833 55.2499 18.75 55.4499C19.2833 56.1166 19.7833 56.7832 20.25 57.4499C20.75 58.0832 21.1667 58.7666 21.5 59.4999C21.8667 60.1999 22.1167 60.9832 22.25 61.8499C22.3833 62.7166 22.35 63.6832 22.15 64.7499C21.8833 66.3166 21.3667 67.5999 20.6 68.5999C19.8667 69.5666 18.9667 70.3166 17.9 70.8499C16.8333 71.3832 15.65 71.7499 14.35 71.9499C13.05 72.1166 11.7 72.1999 10.3 72.1999C8.93333 72.2332 7.55 72.1999 6.15 72.0999C4.78333 71.9999 3.5 71.9332 2.3 71.8999C2.1 71.8999 1.9 71.8999 1.7 71.8999C1.53333 71.8999 1.36667 71.8666 1.2 71.7999C1 66.0332 0.95 60.3166 1.05 54.6499C1.15 48.9499 1.15 43.1999 1.05 37.3999L1.1 37.3499C2.43333 36.9832 3.85 36.6999 5.35 36.4999C6.85 36.2999 8.33333 36.2332 9.8 36.2999C11.2667 36.3666 12.6667 36.5832 14 36.9499C15.3667 37.3166 16.5667 37.9166 17.6 38.7499C18.6333 39.5499 19.45 40.5999 20.05 41.8999C20.65 43.1666 20.95 44.7332 20.95 46.5999C20.95 47.9999 20.7 49.3666 20.2 50.6999C19.7333 52.0332 19.1667 53.2666 18.5 54.3999C18.3667 54.6332 18.3333 54.8166 18.4 54.9499ZM12.85 64.6499C13.3167 64.4499 13.7167 64.1499 14.05 63.7499C14.4167 63.2499 14.5833 62.6499 14.55 61.9499C14.55 61.2499 14.4333 60.6166 14.2 60.0499C14 59.6499 13.7 59.2999 13.3 58.9999C12.9 58.6666 12.4833 58.4499 12.05 58.3499C11.4167 58.1832 10.7667 58.0999 10.1 58.0999C9.43333 58.0666 8.78333 58.0166 8.15 57.9499C8.01667 58.4499 7.9 59.0166 7.8 59.6499C7.7 60.2832 7.63333 60.9332 7.6 61.5999C7.6 62.2332 7.65 62.8499 7.75 63.4499C7.85 64.0499 8.03333 64.5499 8.3 64.9499L8.4 64.9999C8.86667 64.9999 9.35 65.0166 9.85 65.0499C10.3833 65.0499 10.9 65.0332 11.4 64.9999C11.9333 64.9332 12.4167 64.8166 12.85 64.6499ZM12.9 50.6499C13.3667 50.3832 13.7333 49.9999 14 49.4999C14.2333 49.0999 14.4333 48.6332 14.6 48.0999C14.7667 47.5666 14.7167 47.0332 14.45 46.4999C14.1833 45.9666 13.8333 45.5666 13.4 45.2999C13 44.9999 12.5333 44.7832 12 44.6499C11.3333 44.5166 10.6167 44.4499 9.85 44.4499C9.11667 44.4166 8.5 44.5332 8 44.7999C8.06667 45.5666 8.03333 46.4999 7.9 47.5999C7.8 48.6999 7.9 49.8332 8.2 50.9999C8.7 51.0666 9.23333 51.1166 9.8 51.1499C10.3667 51.1832 10.9167 51.1666 11.45 51.0999C11.9833 51.0332 12.4667 50.8832 12.9 50.6499Z" fill="black"/>
<path d="M103.796 33.8167C102.996 35.2167 102.296 36.6167 101.696 38.0167L110.246 55.7667C109.179 56 108.013 56.0833 106.746 56.0167C105.513 55.95 104.363 55.9 103.296 55.8667C102.596 55.0667 101.946 54.1167 101.346 53.0167C100.746 51.8833 100.163 50.7167 99.5962 49.5167C99.0628 48.3167 98.5295 47.1333 97.9962 45.9667C97.4628 44.8 96.9295 43.75 96.3962 42.8167C96.3628 43.7833 96.3462 44.8333 96.3462 45.9667C96.3795 47.0667 96.4128 48.1833 96.4462 49.3167C96.4795 50.45 96.4962 51.5667 96.4962 52.6667C96.5295 53.7667 96.5462 54.7833 96.5462 55.7167C96.0795 55.85 95.5295 55.9333 94.8962 55.9667C94.2628 56.0333 93.5962 56.0667 92.8962 56.0667C92.1962 56.0667 91.5128 56.0333 90.8462 55.9667C90.2128 55.9 89.6795 55.8167 89.2462 55.7167C88.9795 49.9833 88.9295 44.2333 89.0962 38.4667C89.2962 32.6667 89.3795 26.85 89.3462 21.0167C90.4462 20.9833 91.5628 21 92.6962 21.0667C93.8628 21.1 94.9795 21.1167 96.0462 21.1167C96.1128 23.0167 96.1295 25.0167 96.0962 27.1167C96.0628 29.2167 96.0795 31.2167 96.1462 33.1167C96.1462 33.15 96.1628 33.1333 96.1962 33.0667C96.2628 32.9667 96.3295 32.8833 96.3962 32.8167C97.0962 31.9167 97.7295 30.9833 98.2962 30.0167C98.8628 29.05 99.3962 28.0667 99.8962 27.0667C100.429 26.0667 100.963 25.0667 101.496 24.0667C102.063 23.0667 102.696 22.0667 103.396 21.0667C104.463 21.1333 105.596 21.1333 106.796 21.0667C107.996 21 109.129 21.05 110.196 21.2167C109.796 22.6167 109.229 24.0167 108.496 25.4167C107.796 26.8167 107.029 28.2167 106.196 29.6167C105.396 31.0167 104.596 32.4167 103.796 33.8167Z" fill="black"/>
<path d="M21.8001 30.5499C21.8001 30.8832 21.8167 31.1832 21.85 31.4499C21.9167 32.6499 21.9501 33.5666 21.9501 34.1999C21.9501 34.7999 21.9001 35.2499 21.8001 35.5499C21.7334 35.8166 21.6001 35.9666 21.4001 35.9999C21.2001 35.9999 20.9167 35.9999 20.5501 35.9999C20.1834 35.9666 19.7001 35.9666 19.1 35.9999C18.5334 36.0332 17.5501 36.0666 16.1501 36.0999C14.7834 36.1332 12.8834 36.1499 10.45 36.1499C8.05005 36.1499 4.83338 36.1166 0.800049 36.0499V35.1499C0.900049 32.6499 0.983382 30.3999 1.05005 28.3999C1.11672 26.3666 1.15005 24.4832 1.15005 22.7499C1.18338 20.9832 1.20005 19.2832 1.20005 17.6499C1.20005 16.0166 1.18338 14.3499 1.15005 12.6499C1.11672 10.9499 1.08338 9.1499 1.05005 7.2499C1.01672 5.31657 0.983382 3.18324 0.950049 0.849903C1.28338 0.716569 1.80005 0.616568 2.50005 0.5499C3.20005 0.449902 3.95005 0.399902 4.75005 0.399902C5.55005 0.399902 6.33338 0.449902 7.10005 0.5499C7.86672 0.649901 8.48338 0.799901 8.95005 0.999901C8.88338 3.16657 8.85005 5.3999 8.85005 7.6999C8.88338 9.96657 8.91672 12.2499 8.95005 14.5499C8.98338 16.8499 9.00005 19.1499 9.00005 21.4499C9.03338 23.7166 9.03338 25.9166 9.00005 28.0499V28.0999C9.23338 28.0332 9.66672 28.0166 10.3 28.0499C10.9667 28.0499 11.7334 28.0666 12.6 28.0999C13.4667 28.1332 14.3834 28.1832 15.35 28.2499C16.35 28.2832 17.2834 28.3166 18.1501 28.3499C19.0501 28.3832 19.8334 28.4166 20.5 28.4499C21.2001 28.4499 21.6834 28.4332 21.9501 28.3999C21.9501 28.7666 21.9334 29.1332 21.9001 29.4999C21.8667 29.8332 21.8334 30.1832 21.8001 30.5499Z" fill="black"/>
<path fill-rule="evenodd" clip-rule="evenodd" d="M84.7869 30.6006C85.2357 30.5805 85.6865 30.5927 86.1357 30.6375C86.8724 30.721 87.5772 30.9836 88.1884 31.4022C88.7996 31.8208 89.2985 32.3826 89.6413 33.0384C90.5042 34.861 89.7896 37.1812 87.72 39.2391C86.8179 40.1278 85.8368 40.9198 84.7928 41.6079C84.841 40.6856 84.883 39.8128 84.9189 38.9894C85.394 38.6113 85.8498 38.2076 86.284 37.7797C87.3964 36.6768 88.3806 35.0694 87.8076 33.8925C87.6048 33.5438 87.3204 33.2492 86.9789 33.0338C86.6373 32.8183 86.2486 32.6884 85.8458 32.6551C85.52 32.6279 85.1935 32.6219 84.8683 32.6368C84.8607 32.3948 84.853 32.1539 84.8454 31.9142C84.8315 31.465 84.812 31.0271 84.7869 30.6006ZM67.035 18.0006C67.0965 18.0002 67.158 18 67.2194 18C68.2502 18.1042 69.2294 18.1303 70.1571 18.0782C71.1363 17.9739 72.1671 17.9739 73.2494 18.0782C74.8986 18.1824 76.4705 18.5211 77.9651 19.0944C79.4597 19.6155 80.7481 20.3972 81.8304 21.4395C82.5519 21.9085 83.1189 22.6641 83.5312 23.7064C83.9435 24.7487 84.2527 25.9733 84.4589 27.3804C84.6095 28.3703 84.7188 29.4437 84.7869 30.6006C83.9644 30.6375 83.1484 30.7828 82.3605 31.0343C80.9816 31.4074 79.6301 31.8748 78.3156 32.4331C79.2387 30.6341 79.8691 28.6999 80.183 26.7032C80.4394 25.3621 80.3748 23.9795 79.9942 22.6681C79.7675 21.9251 79.3523 21.253 78.789 20.717C78.2256 20.1809 77.5331 19.799 76.7785 19.6081C76.0402 19.4823 75.2823 19.5392 74.5712 19.7737C73.8601 20.0082 73.2175 20.4132 72.6999 20.9531C71.8187 21.8983 71.1317 23.0063 70.6774 24.2149C70.4549 24.7394 70.2392 25.264 70.0437 25.7953C69.9696 25.1228 69.8887 24.4503 69.7875 23.8248C69.6085 22.2213 69.0743 20.6776 68.2235 19.3054C67.9085 18.7998 67.5051 18.3583 67.035 18.0006ZM60.625 18.9062C60.8256 18.632 61.0552 18.3785 61.311 18.1505C61.9334 17.5956 62.689 17.2104 63.5044 17.0323C64.4261 16.926 65.3591 17.0833 66.1946 17.4857C66.4928 17.6294 66.7741 17.8021 67.035 18.0006C65.8596 18.008 64.6841 18.0859 63.5087 18.2345C62.511 18.3661 61.5498 18.59 60.625 18.9062ZM54.6325 25.8636C54.7125 25.5614 54.8109 25.2332 54.9277 24.8789C55.2369 23.8888 55.4688 23.1071 55.6234 22.5338C55.9842 21.7521 56.5511 21.0747 57.3242 20.5014C58.1488 19.9282 59.0765 19.4592 60.1072 19.0944C60.2785 19.0284 60.4511 18.9657 60.625 18.9062C60.3375 19.2994 60.1099 19.7353 59.9517 20.1999C59.4905 21.5898 59.3454 23.0647 59.527 24.5175C59.6692 26.3098 59.983 28.0844 60.464 29.817C59.7877 29.2506 59.1041 28.7239 58.4583 28.2263C58.2222 28.0445 57.9912 27.8665 57.7674 27.6918C56.8381 26.9244 55.791 26.3113 54.6663 25.876C54.6551 25.8718 54.6438 25.8677 54.6325 25.8636ZM54.2785 27.8967C54.3112 27.6481 54.3472 27.3978 54.3865 27.1459C54.4186 26.7891 54.5006 26.3616 54.6325 25.8636C53.9791 25.626 53.2791 25.5434 52.5879 25.6227C51.8848 25.7034 51.2108 25.9492 50.6214 26.3401C50.0763 26.7759 49.645 27.3369 49.3644 27.9752C49.0838 28.6135 48.9623 29.31 49.0102 30.0053C49.0837 31.2125 49.4417 32.3853 50.0551 33.4285C51.0984 35.2546 52.4731 36.849 54.0931 38.1402C54.0882 38.2531 54.0829 38.3665 54.0773 38.4805C54.0301 40.3888 54.0477 42.2972 54.1301 44.2055C54.0407 44.291 53.952 44.3774 53.8641 44.4646C52.6236 45.5878 51.2214 46.8588 50.4529 48.5939C49.6843 50.3291 49.6574 52.8376 51.3697 54.3575C52.2336 55.0933 53.3424 55.4796 54.4776 55.4403C55.5053 55.4123 56.5197 55.2089 57.4768 54.8399C57.6262 54.9931 57.7815 55.1421 57.9426 55.287C59.7465 57.1109 61.9626 58.2574 64.591 58.7264C66.0341 58.7264 67.6318 58.7785 69.384 58.8827C70.3023 58.9647 71.2064 59.0037 72.0963 58.9997C72.1664 59.0516 72.2373 59.1026 72.3089 59.1526C73.1345 59.694 74.0984 59.9881 75.0864 60C75.5164 60.0007 75.944 59.9349 76.3538 59.805C77.1636 59.5034 77.878 58.9916 78.4232 58.3224C78.4804 58.2522 78.5356 58.1805 78.5886 58.1074C78.743 58.0557 78.896 58.0014 79.0474 57.9447C80.4904 57.4236 81.65 56.5377 82.5262 55.287C83.0416 54.7658 83.4281 53.8017 83.6858 52.3947C83.995 50.9876 84.2269 49.3982 84.3815 47.6263C84.5877 45.8545 84.7165 44.0045 84.7681 42.0763C84.7765 41.9188 84.7847 41.7626 84.7928 41.6079C81.9161 43.5041 78.5625 44.6115 75.0729 44.7807C76.7896 46.7496 78.1041 49.0342 78.9425 51.506C79.4855 52.9376 79.6616 54.4818 79.4549 55.9985C79.3382 56.7615 79.0407 57.4843 78.5886 58.1074C77.3235 58.5314 75.956 58.7899 74.4863 58.8827C73.7013 58.9572 72.9046 58.9962 72.0963 58.9997C71.1598 58.3064 70.3587 57.4465 69.7336 56.4625C68.0349 53.973 66.8458 51.1733 66.2348 48.2241C64.0611 51.08 61.1673 53.3101 57.8483 54.687C57.7255 54.7408 57.6017 54.7917 57.4768 54.8399C56.9669 54.3169 56.5255 53.745 56.1524 53.1243C56.5296 53.0162 56.8572 52.8939 57.0933 52.7972C60.3339 51.448 63.1087 49.2019 65.0975 46.3368C65.7586 46.9414 66.5433 47.3713 67.4514 47.6263C67.6977 47.6788 67.9458 47.7213 68.1954 47.754C68.7505 50.4564 69.8392 53.0291 71.4055 55.3192C71.9357 56.1513 72.6225 56.8729 73.428 57.4444C73.7621 57.6809 74.1436 57.8424 74.5462 57.9179C74.9489 57.9933 75.3631 57.9809 75.7605 57.8815C76.2158 57.6832 76.612 57.371 76.9108 56.9751C77.2096 56.5792 77.4009 56.1131 77.4661 55.6218C77.6135 54.449 77.4628 53.2579 77.0279 52.1583C76.3178 50.0499 75.2276 48.1041 73.8239 46.4104C74.2692 45.9371 74.5931 45.2742 74.7955 44.4214C74.8653 43.8567 74.9292 43.2921 74.9872 42.7274C76.7578 42.6422 78.5087 42.2853 80.1773 41.6656C81.8935 41.0282 83.4934 40.1239 84.9189 38.9894C84.9507 38.2598 84.9778 37.569 85 36.9171C84.9561 35.4525 84.9122 34.0258 84.8683 32.6368C84.1936 32.6678 83.5247 32.7889 82.8796 32.9981C80.5668 33.6219 78.339 34.5253 76.2459 35.6882C75.9478 36.0678 75.6359 36.4356 75.3108 36.7909C75.2684 36.0279 75.174 35.2882 75.0274 34.572C75.0031 34.4001 74.9745 34.2326 74.9415 34.0695C76.6343 31.8115 77.7466 29.1737 78.1807 26.3871C78.3919 25.3666 78.3549 24.3104 78.0729 23.307C77.9569 22.8974 77.7391 22.5236 77.4398 22.2203C77.1405 21.917 76.7693 21.6939 76.3605 21.5719C75.9465 21.5238 75.5269 21.5736 75.1357 21.7174C74.7445 21.8611 74.3928 22.0946 74.1088 22.3991C73.4148 23.1621 72.8726 24.05 72.5111 25.0152C71.8345 26.5842 71.2742 28.1996 70.8343 29.8483C70.0812 29.7373 69.2417 29.772 68.3158 29.9523C68.2471 28.0035 68.0564 26.0603 67.7449 24.1342C67.6161 22.8201 67.2045 21.5492 66.5381 20.4084C66.0123 19.5946 64.9269 18.801 63.8415 18.9894C63.3712 19.1092 62.939 19.346 62.5854 19.6777C62.2317 20.0093 61.968 20.425 61.8191 20.8859L61.8258 20.8926C61.4789 22.0055 61.3777 23.1803 61.5292 24.3359C61.7859 27.5353 62.6291 30.6606 64.0168 33.5563C64.181 33.7919 64.3368 34.033 64.4839 34.2793C64.3492 35.6275 64.2818 36.9758 64.2818 38.3241C64.2818 39.6977 64.2445 41.1467 64.17 42.671C64.0678 42.5832 63.9694 42.4905 63.8752 42.3933C63.4773 41.9683 63.17 41.4673 62.9719 40.9204C62.9324 41.0083 62.8802 41.0899 62.8168 41.1625C62.8054 41.4128 62.7011 41.6499 62.5242 41.8277C62.3472 42.0054 62.1103 42.1111 61.8595 42.1242C59.4595 42.2453 57.3494 43.9871 55.2191 45.9106C54.9199 46.181 54.6183 46.4537 54.3255 46.7331C54.2458 46.0753 54.1888 45.409 54.1546 44.734C54.1459 44.5579 54.1377 44.3817 54.1301 44.2055C55.5595 42.8397 57.1908 41.6999 58.9674 40.8263C57.1875 40.2077 55.5422 39.2953 54.0931 38.1402C54.1332 37.209 54.1471 36.3149 54.1348 35.4579C54.7662 36.0889 55.4569 36.6619 56.1992 37.1684C57.9986 38.3962 60.0538 39.2008 62.2101 39.5216C62.3968 39.5489 62.572 39.6281 62.7157 39.7502C62.5896 38.6794 62.827 37.5973 63.3898 36.6768C62.9854 36.0043 62.6146 35.2914 62.2708 34.6189C60.7607 32.4802 58.5225 30.7989 56.5 29.2857C55.8267 28.7226 55.0791 28.2553 54.2785 27.8967ZM54.2785 27.8967C54.1828 28.625 54.1157 29.3388 54.0773 30.0381C54.0258 30.9241 54 31.836 54 32.7741C54.0764 33.6241 54.1214 34.5187 54.1348 35.4579C53.2356 34.5591 52.4568 33.5426 51.8214 32.4331C51.3382 31.6649 51.0426 30.7941 50.9585 29.891C50.9267 29.5269 50.9816 29.1605 51.1186 28.8216C51.2557 28.4826 51.4711 28.1808 51.7472 27.9407C52.0805 27.7451 52.454 27.6277 52.8394 27.5974C53.2248 27.5671 53.6121 27.6247 53.9719 27.7658C54.075 27.8077 54.1772 27.8514 54.2785 27.8967ZM64.4839 34.2793C64.665 34.5823 64.8331 34.893 64.9876 35.2107C65.8709 34.7475 66.8788 34.5756 67.8662 34.7197C67.9831 33.6885 68.1426 32.6663 68.3449 31.653C68.3455 31.0858 68.3358 30.5188 68.3158 29.9523C68.184 29.978 68.0505 30.0066 67.9152 30.0381C66.8329 30.3508 65.9568 30.9241 65.2868 31.7579C64.9776 31.9663 64.7456 32.4875 64.591 33.3213C64.5515 33.6406 64.5158 33.9599 64.4839 34.2793ZM70.8343 29.8483C70.6595 30.5032 70.5038 31.1633 70.3673 31.8279C70.3673 32.7604 70.3314 33.6885 70.2594 34.6121C70.2491 34.7654 70.2037 34.9142 70.1265 35.0472C70.0494 35.1801 69.9426 35.2936 69.8145 35.3788V35.4461C70.1839 35.6742 70.5159 35.9578 70.7988 36.2867C70.9035 36.4153 71.0003 36.55 71.0887 36.6902C72.2994 35.7342 73.5792 34.8688 74.9178 34.101C74.9257 34.0905 74.9336 34.08 74.9415 34.0695C74.6245 32.5019 73.9059 31.3406 72.7855 30.5853C72.2168 30.2019 71.5664 29.9563 70.8343 29.8483ZM75.3108 36.7909C74.2484 37.9522 73.0457 38.9804 71.7291 39.8511C71.6578 40.3899 71.496 40.9128 71.2504 41.3979C71.3365 41.4271 71.4181 41.4679 71.4931 41.519C72.0257 41.8889 72.5246 42.2924 73.01 42.7093C73.6696 42.7531 74.3298 42.759 74.9872 42.7274C75.1005 41.6244 75.1912 40.5215 75.2594 39.4185C75.3407 38.5138 75.3578 37.6379 75.3108 36.7909ZM73.8239 46.4104C72.8144 45.1921 71.6427 44.1043 70.3336 43.1801C70.2145 43.0949 70.1156 42.9847 70.0437 42.8573C69.6534 43.1527 69.2157 43.3801 68.7493 43.5298C68.7794 43.7163 68.7561 43.9075 68.6819 44.0813C68.4392 44.6328 68.1696 45.1708 67.8797 45.7021C67.9509 46.3926 68.0564 47.0773 68.1954 47.754C68.9379 47.8511 69.6949 47.8607 70.4663 47.7827C71.4971 47.6263 72.3475 47.3657 73.0175 47.001C73.3201 46.8569 73.5889 46.6601 73.8239 46.4104ZM64.17 42.671C64.6493 43.0826 65.2129 43.3876 65.8235 43.5635C65.7647 43.6946 65.7348 43.8368 65.7359 43.9804C65.7359 44.4041 65.7696 44.8211 65.8033 45.238C65.5806 45.6135 65.3451 45.98 65.0975 46.3368C65.0832 46.3238 65.069 46.3106 65.0549 46.2974C64.3849 45.62 64.0756 44.6819 64.1272 43.4833C64.1426 43.2102 64.1569 42.9394 64.17 42.671ZM54.3255 46.7331C54.4858 48.0558 54.7381 49.3437 55.0823 50.5968C55.3343 51.514 55.691 52.3566 56.1524 53.1243C55.0859 53.43 53.6226 53.6219 52.7113 52.7972C51.8012 51.9902 51.8147 50.4568 52.3001 49.3606C52.7384 48.3668 53.4969 47.5235 54.3255 46.7331ZM64.7271 39.7173C64.8148 40.1905 65.0282 40.6315 65.3449 40.9944C65.8201 41.4632 66.4528 41.7393 67.1205 41.7691C67.7881 41.7989 68.4431 41.5804 68.9583 41.1558C69.2775 40.8573 69.5103 40.4787 69.6325 40.0596C69.6123 40.0327 69.5718 39.9856 69.5718 39.9856C69.4591 39.7925 69.4138 39.5676 69.4431 39.346C69.4724 39.1245 69.5746 38.919 69.7336 38.7616C69.6756 38.3319 69.5034 37.9255 69.2347 37.5847C68.8292 37.1299 68.2811 36.8257 67.6798 36.7219C67.0786 36.618 66.4598 36.7207 65.9247 37.0131C65.9699 37.1629 65.9794 37.3213 65.9523 37.4754C65.9252 37.6296 65.8622 37.7753 65.7685 37.9008C65.6748 38.0263 65.5529 38.1282 65.4126 38.1983C65.2723 38.2683 65.1175 38.3047 64.9606 38.3043H64.846C64.6804 38.7562 64.6393 39.2442 64.7271 39.7173Z" fill="#F56200"/>
</svg>
